<svg width="16" height="10" viewBox="0 0 16 10" fill="none" xmlns="http://www.w3.org/2000/svg">
<path fill-rule="evenodd" clip-rule="evenodd" d="M2.66671 1.5C2.20647 1.5 1.83337 1.8731 1.83337 2.33333V7.66667C1.83337 8.1269 2.20647 8.5 2.66671 8.5H9.33337C9.79361 8.5 10.1667 8.1269 10.1667 7.66667V5.6735C10.1666 5.66864 10.1666 5.66378 10.1667 5.65892V4.00949C10.1666 4.00347 10.1666 3.99746 10.1667 3.99145V2.33333C10.1667 1.8731 9.79361 1.5 9.33337 1.5H2.66671ZM11.1667 3.12939V2.33333C11.1667 1.32081 10.3459 0.5 9.33337 0.5H2.66671C1.65419 0.5 0.833374 1.32081 0.833374 2.33333V7.66667C0.833374 8.67919 1.65419 9.5 2.66671 9.5H9.33337C10.3459 9.5 11.1667 8.67919 11.1667 7.66667V6.60093L13.8717 8.40426C13.9972 8.48777 14.143 8.53567 14.2936 8.54288C14.4441 8.55008 14.5938 8.51631 14.7267 8.44516C14.8596 8.37401 14.9707 8.26816 15.0482 8.13885C15.1257 8.00955 15.1666 7.86166 15.1667 7.71093V2.24681C15.1667 2.24677 15.1667 2.24686 15.1667 2.24681C15.1667 2.10024 15.1281 1.9561 15.0547 1.82923C14.9812 1.70231 14.8756 1.59702 14.7485 1.52398C14.6213 1.45094 14.4772 1.41274 14.3305 1.41324C14.1839 1.41374 14.04 1.45291 13.9134 1.52681L11.1667 3.12939ZM11.1667 4.28715V5.39908L14.1667 7.39908V2.53677L11.1667 4.28715Z" fill="#869198"/>
</svg>
